<?xml version="1.0" standalone="no"?>
<!DOCTYPE svg PUBLIC "-//W3C//DTD SVG 20010904//EN"
 "http://www.w3.org/TR/2001/REC-SVG-20010904/DTD/svg10.dtd">
<svg version="1.0" xmlns="http://www.w3.org/2000/svg"
 width="213.000000pt" height="213.000000pt" viewBox="0 0 213.000000 213.000000"
 preserveAspectRatio="xMidYMid meet">
<metadata>
Created by potrace 1.11, written by Peter Selinger 2001-2013
</metadata>
<g transform="translate(0.000000,213.000000) scale(0.100000,-0.100000)"
fill="#000000" stroke="none">
<path d="M0 1485 l0 -644 128 2 c145 2 189 -11 228 -71 25 -37 22 -67 -10 -97
-25 -23 -28 -33 -15 -57 7 -14 3 -21 -22 -33 -17 -9 -33 -14 -37 -11 -3 3 0 6
6 6 6 0 9 7 5 16 -5 13 -7 13 -14 2 -7 -11 -9 -10 -9 1 0 8 -3 11 -6 8 -4 -3
-15 -2 -25 4 -17 9 -18 7 -9 -16 6 -15 6 -24 1 -21 -5 4 -12 0 -15 -6 -3 -7
-3 -3 0 10 3 13 1 22 -6 22 -6 0 -8 -5 -4 -12 5 -8 2 -9 -11 -4 -15 5 -16 4
-6 -8 7 -9 8 -17 2 -20 -5 -3 -12 0 -15 6 -3 7 -4 1 -3 -14 5 -32 -18 -46 -32
-20 -9 15 -11 14 -20 -8 -7 -18 -10 -20 -10 -7 -1 19 -16 23 -26 6 -4 -6 -14
-8 -22 -5 -8 3 -12 2 -9 -3 3 -5 -1 -14 -9 -21 -8 -7 -13 -16 -10 -20 3 -4 -2
-13 -10 -20 -12 -10 -15 -50 -15 -231 l0 -219 1065 0 1065 0 0 1065 0 1065
-542 -1 c-456 -1 -537 -3 -503 -14 23 -7 61 -23 85 -35 25 -12 71 -30 102 -40
59 -19 188 -106 188 -127 0 -7 3 -13 8 -13 4 0 18 -17 32 -37 14 -20 30 -41
35 -47 37 -40 46 -76 41 -160 -3 -47 -9 -93 -15 -104 -7 -12 -7 -22 0 -29 6
-6 6 -18 0 -34 -9 -21 -10 -22 -10 -3 -1 11 -5 24 -10 30 -5 5 -11 20 -13 34
-1 14 -7 23 -12 22 -5 -2 -13 2 -18 10 -6 8 -8 -3 -5 -34 2 -26 2 -50 -1 -53
-14 -13 -11 -45 4 -45 8 0 13 4 10 8 -2 4 4 8 15 8 11 0 18 -5 15 -12 -3 -7 0
-14 5 -16 7 -2 7 -12 0 -30 -6 -17 -7 -29 -1 -33 14 -9 12 -25 -3 -25 -8 0
-11 -13 -9 -42 3 -36 0 -45 -19 -57 -21 -12 -25 -11 -45 12 -15 17 -24 46 -29
88 -8 65 -19 83 -75 113 -18 10 -26 24 -28 46 -2 22 1 30 10 25 7 -3 6 0 -3 6
-14 11 -14 14 5 33 11 11 27 20 33 18 7 -2 13 5 13 14 0 11 5 14 18 9 9 -3 22
-7 27 -8 16 -3 6 37 -13 51 -15 12 -18 10 -26 -12 -13 -33 -65 -60 -102 -53
-101 21 -100 21 -85 3 7 -9 9 -16 3 -16 -5 0 -12 6 -15 13 -8 22 -142 12 -174
-13 -24 -19 -84 -28 -82 -12 3 20 -2 44 -8 38 -5 -4 -9 -12 -9 -17 -1 -5 -2
-14 -3 -19 -1 -6 -9 -5 -21 2 -16 10 -24 10 -40 0 -12 -7 -26 -10 -32 -6 -7 4
-8 3 -4 -4 4 -7 1 -12 -8 -12 -9 0 -45 -14 -80 -32 -36 -18 -69 -29 -73 -25
-3 4 -6 28 -4 53 2 52 -15 115 -31 111 -6 -1 -13 5 -15 13 -4 12 -3 12 5 1 6
-8 12 -9 16 -3 3 6 0 16 -9 24 -34 31 -45 38 -58 38 -7 0 -18 5 -24 11 -30 30
-48 -42 -27 -111 8 -25 14 -55 14 -67 0 -12 6 -23 13 -26 9 -4 9 -7 -1 -18 -7
-8 -18 -14 -24 -14 -7 0 -13 -13 -14 -30 0 -16 -6 -31 -13 -33 -6 -2 -9 -7 -7
-11 3 -4 -1 -8 -9 -8 -8 0 -12 4 -9 9 3 4 1 8 -5 8 -5 0 -18 3 -28 6 -16 6
-16 5 2 -10 13 -11 15 -15 5 -14 -23 5 -38 22 -32 37 4 10 1 12 -8 6 -10 -6
-12 -3 -8 12 3 11 1 27 -4 36 -7 13 -5 15 6 11 13 -5 13 -1 3 25 -9 26 -8 38
10 80 12 28 18 50 14 49 -19 -2 -18 7 8 56 16 29 35 73 42 97 12 40 77 119 98
119 5 0 42 28 82 61 40 34 100 75 134 90 l60 29 -422 0 -423 0 0 -645z m1260
101 c0 -2 -7 -7 -16 -10 -8 -3 -12 -2 -9 4 6 10 25 14 25 6z m-253 -48 c6 -7
17 -38 24 -68 8 -30 23 -64 34 -75 16 -15 16 -16 2 -5 -17 13 -17 11 3 -22 12
-21 26 -39 31 -39 5 -1 14 -3 19 -4 6 -1 15 -3 21 -4 18 -2 4 -26 -17 -27 -10
-1 -25 -2 -32 -3 -7 -1 -11 -5 -8 -10 3 -4 -3 -16 -13 -25 -19 -18 -42 -14
-76 13 -21 17 -34 81 -15 81 6 0 5 11 -5 30 -9 17 -13 30 -9 30 4 0 2 6 -3 13
-14 18 -16 97 -3 97 6 0 9 4 6 9 -4 5 0 12 6 14 21 8 25 8 35 -5z m298 -62
c-14 -71 -81 -122 -145 -110 -17 4 -45 20 -63 36 l-31 30 22 19 c30 24 132 61
149 54 8 -3 24 2 36 10 28 20 40 6 32 -39z m-654 -11 c5 4 9 1 9 -5 0 -17 -25
-6 -26 11 -1 9 1 10 3 1 3 -7 9 -10 14 -7z m737 -27 c6 -6 12 -16 12 -22 0 -6
-4 -5 -9 3 -12 19 -41 23 -41 5 0 -8 6 -11 18 -7 9 3 14 3 10 -2 -4 -4 -2 -15
5 -23 9 -13 9 -14 0 -8 -9 5 -13 1 -13 -11 0 -14 -2 -15 -9 -5 -10 17 -18 -8
-17 -51 2 -25 0 -26 -11 -11 -11 15 -13 15 -27 1 -14 -14 -19 -14 -48 0 -18 9
-34 17 -36 18 -9 7 93 105 105 101 7 -3 13 -1 13 3 0 5 -6 11 -12 14 -7 2 1 4
17 4 17 1 36 -4 43 -9z m-810 -4 c-4 -3 0 -20 7 -38 10 -24 11 -36 3 -44 -8
-8 -8 -15 2 -27 10 -12 10 -15 -1 -15 -11 0 -11 -2 1 -10 11 -7 11 -10 2 -10
-7 0 -10 -5 -7 -10 4 -6 10 -8 14 -6 6 4 21 -38 48 -137 4 -15 1 -18 -16 -12
-12 4 -22 2 -22 -4 -1 -6 -3 -15 -4 -21 -1 -5 -3 -13 -4 -16 -3 -17 -31 22
-31 43 0 20 4 23 21 18 19 -6 19 -4 -6 35 -15 23 -22 39 -16 36 7 -4 11 1 11
13 0 12 -4 21 -8 21 -12 0 -40 91 -38 120 3 42 17 70 33 70 9 0 14 -3 11 -6z
m255 -25 c-15 -15 -83 -24 -83 -10 0 6 12 11 28 11 15 0 34 4 42 10 18 11 28
4 13 -11z m68 -1 c0 -7 2 -22 4 -33 6 -29 -41 -72 -85 -80 -28 -5 -46 -2 -67
12 -34 21 -44 34 -36 47 3 5 1 6 -4 3 -12 -8 -26 20 -17 34 8 14 31 11 38 -6
7 -20 66 -19 111 2 19 9 35 20 35 25 0 13 20 9 21 -4z m-86 -150 l30 -3 -30
-16 c-25 -14 -42 -16 -86 -10 -4 1 -6 10 -5 21 1 29 27 42 46 25 8 -7 29 -15
45 -17z m137 10 c-6 -6 -15 -8 -19 -4 -4 4 -1 11 7 16 19 12 27 3 12 -12z
m238 12 c0 -5 -2 -10 -4 -10 -3 0 -8 5 -11 10 -3 6 -1 10 4 10 6 0 11 -4 11
-10z m32 -35 c7 4 5 0 -4 -8 -10 -8 -14 -18 -10 -22 4 -5 1 -4 -7 0 -11 6 -13
4 -8 -8 7 -19 1 -24 -36 -31 -15 -3 -31 1 -38 10 -9 12 -9 13 2 9 8 -3 18 4
24 17 7 16 17 22 34 20 21 -2 22 0 10 15 -13 16 -12 17 3 5 9 -8 23 -11 30 -7z
m288 -38 c0 -8 -9 -22 -20 -32 -23 -20 -24 -17 -10 19 10 27 30 35 30 13z
m-441 -53 c-8 -10 -15 -11 -24 -4 -6 5 -16 6 -20 2 -5 -4 -6 -2 -3 3 4 6 18
11 32 11 22 2 25 -1 15 -12z m278 -14 c-2 -17 -7 -33 -10 -37 -4 -3 -2 -12 4
-19 7 -8 6 -14 -2 -20 -8 -4 -9 -3 -5 4 4 7 3 12 -2 12 -16 0 -21 40 -10 66
15 33 28 30 25 -6z m-156 -1 c19 -10 19 -12 5 -28 -9 -10 -13 -21 -9 -24 3 -4
1 -7 -5 -7 -7 0 -12 5 -12 10 0 6 -5 10 -12 10 -6 0 -3 -8 7 -20 10 -11 21
-17 25 -15 15 9 17 -20 4 -46 -13 -25 -27 -30 -81 -29 -83 2 -80 1 -53 9 l25
8 -25 10 c-14 6 -31 8 -37 6 -7 -3 -13 2 -13 11 0 9 7 16 15 16 8 0 15 4 15
10 0 5 -13 8 -30 6 -36 -4 -72 19 -52 32 7 5 34 10 60 11 26 0 70 10 97 21 61
23 52 22 76 9z m92 -39 c-3 -11 0 -20 6 -20 6 0 11 -7 11 -16 0 -9 5 -12 13
-8 6 4 3 -2 -7 -15 -12 -13 -26 -19 -35 -16 -12 5 -13 3 -4 -6 9 -9 18 -7 41
10 27 19 31 19 36 5 4 -9 2 -22 -4 -29 -5 -6 -8 -14 -5 -16 5 -5 -54 -70 -99
-109 -16 -14 -26 -19 -22 -12 4 6 2 12 -3 12 -6 0 -11 -7 -11 -15 0 -8 -9 -15
-19 -15 -11 0 -22 -4 -25 -8 -14 -23 -175 10 -184 37 -2 6 -7 9 -12 6 -4 -3
-3 6 3 19 10 21 14 23 27 11 17 -16 35 -15 68 3 12 7 22 10 22 6 0 -3 6 -2 13
5 8 6 31 12 53 14 21 1 45 6 52 10 6 5 17 5 24 1 6 -4 8 -3 5 3 -4 6 2 18 13
28 17 15 18 51 1 41 -4 -3 -13 -1 -21 5 -13 8 -13 9 0 9 11 0 11 3 2 12 -18
18 -15 28 11 29 17 1 18 2 4 6 -14 4 -15 8 -7 18 6 8 18 11 26 8 8 -3 14 0 14
7 0 6 4 9 9 6 5 -3 7 -15 4 -26z m-415 -72 c6 2 9 9 6 17 -7 17 8 26 26 14 12
-7 12 -9 1 -9 -7 0 -11 -6 -7 -15 3 -10 -1 -15 -12 -15 -10 0 -23 -5 -29 -11
-8 -8 -15 -5 -24 12 -7 13 -12 27 -11 32 1 4 -2 7 -8 7 -5 0 -10 6 -10 13 0 6
13 -2 28 -19 16 -16 33 -29 40 -26z m-214 -14 c18 -25 18 -25 -3 -12 -11 7
-23 18 -25 25 -9 22 8 14 28 -13z m273 -100 c0 -14 -29 -12 -34 2 -2 5 5 10
15 10 10 0 19 -6 19 -12z m-87 -399 c6 3 10 1 10 -6 0 -7 3 -10 6 -6 4 3 13
-1 21 -9 8 -8 19 -12 24 -9 5 4 9 2 9 -3 0 -6 7 -13 16 -16 10 -4 13 -2 8 7
-4 6 1 5 12 -5 10 -9 37 -19 59 -23 22 -4 47 -8 55 -9 8 -2 21 4 28 13 11 14
11 14 6 -1 -5 -15 0 -17 30 -16 19 1 34 4 31 7 -2 4 14 5 36 3 25 -3 39 0 39
8 0 6 5 8 11 5 5 -4 24 -1 40 5 16 7 32 10 35 7 16 -16 -163 -190 -232 -227
-22 -12 -30 -12 -62 6 -92 49 -282 262 -282 316 l0 31 45 -42 c25 -23 50 -39
55 -36z m-610 35 c-8 -5 -19 -10 -25 -10 -5 0 -3 5 5 10 8 5 20 10 25 10 6 0
3 -5 -5 -10z"/>
<path d="M1228 1489 c-2 -6 -25 -13 -51 -16 -55 -7 -63 -23 -11 -23 36 0 93
33 75 44 -5 3 -11 1 -13 -5z"/>
<path d="M743 1273 c-15 -5 -17 -23 -4 -23 5 0 11 7 15 15 3 8 4 15 3 14 -1 0
-8 -3 -14 -6z"/>
<path d="M1060 1070 c-13 -8 -13 -10 2 -10 9 0 20 5 23 10 8 13 -5 13 -25 0z"/>
<path d="M1087 1019 c7 -7 15 -10 18 -7 3 3 -2 9 -12 12 -14 6 -15 5 -6 -5z"/>
<path d="M640 1771 c0 -6 4 -13 10 -16 6 -3 7 1 4 9 -7 18 -14 21 -14 7z"/>
<path d="M1334 1741 c2 -17 0 -34 -5 -37 -5 -3 -9 5 -9 18 0 17 -3 19 -9 9 -7
-11 -9 -11 -14 0 -4 12 -7 12 -18 0 -8 -8 -9 -11 -3 -8 6 4 22 -5 34 -18 13
-14 27 -25 31 -25 9 0 5 77 -4 87 -4 3 -5 -8 -3 -26z"/>
<path d="M980 1586 c0 -9 5 -16 10 -16 6 0 10 4 10 9 0 6 -4 13 -10 16 -5 3
-10 -1 -10 -9z"/>
<path d="M1480 1418 c0 -16 5 -28 10 -28 13 0 13 20 0 40 -8 12 -10 9 -10 -12z"/>
<path d="M1500 1359 c0 -5 5 -7 10 -4 6 3 10 8 10 11 0 2 -4 4 -10 4 -5 0 -10
-5 -10 -11z"/>
</g>
</svg>
